# This file uses centimeters as units for non-parametric coordinates.

mtllib LaserLine.mtl
v -0.110127 0.700333 0.008099
v 0.884393 0.700333 0.008099
v -0.110127 0.770885 0.008099
v 0.884393 0.770885 0.008099
v -0.110127 0.770885 -0.007903
v 0.884393 0.770885 -0.007903
v -0.110127 0.700333 -0.007903
v 0.884393 0.700333 -0.007903
vt 0.096819 0.998008
vt 0.096819 0.001992
vt 0.185142 0.998008
vt 0.185142 0.001992
vt 0.192308 0.998008
vt 0.192308 0.001992
vt 0.284832 0.998008
vt 0.284832 0.001992
vt 0.001147 0.998008
vt 0.001147 0.001992
vt 0.089470 0.998008
vt 0.089470 0.001992
vt 0.291470 0.998008
vt 0.291470 0.001992
vt 0.383994 0.998008
vt 0.383994 0.001992
vt 0.486120 0.094516
vt 0.486120 0.001992
vt 0.574443 0.094516
vt 0.574443 0.001992
vt 0.390631 0.094516
vt 0.390631 0.001992
vt 0.478954 0.094516
vt 0.478954 0.001992
vn 0.000000 0.000000 1.000000
vn 0.000000 0.000000 1.000000
vn 0.000000 0.000000 1.000000
vn 0.000000 0.000000 1.000000
vn 0.000000 1.000000 0.000000
vn 0.000000 1.000000 0.000000
vn 0.000000 1.000000 0.000000
vn 0.000000 1.000000 0.000000
vn 0.000000 0.000000 -1.000000
vn 0.000000 0.000000 -1.000000
vn 0.000000 0.000000 -1.000000
vn 0.000000 0.000000 -1.000000
vn 0.000000 -1.000000 0.000000
vn 0.000000 -1.000000 0.000000
vn 0.000000 -1.000000 0.000000
vn 0.000000 -1.000000 0.000000
vn 1.000000 0.000000 0.000000
vn 1.000000 0.000000 0.000000
vn 1.000000 0.000000 0.000000
vn 1.000000 0.000000 0.000000
vn -1.000000 0.000000 0.000000
vn -1.000000 0.000000 0.000000
vn -1.000000 0.000000 0.000000
vn -1.000000 0.000000 0.000000
s 1
usemtl lambert6SG
f 1/1/1 2/2/2 3/3/3
f 3/3/3 2/2/2 4/4/4
s 2
f 3/5/5 4/6/6 5/7/7
f 5/7/7 4/6/6 6/8/8
s 3
f 5/9/9 6/10/10 7/11/11
f 7/11/11 6/10/10 8/12/12
s 4
f 7/13/13 8/14/14 1/15/15
f 1/15/15 8/14/14 2/16/16
s 5
f 2/17/17 8/18/18 4/19/19
f 4/19/19 8/18/18 6/20/20
s 6
f 7/21/21 1/22/22 5/23/23
f 5/23/23 1/22/22 3/24/24
v -0.110127 0.346434 0.008099
v 0.884393 0.346434 0.008099
v -0.110127 0.416986 0.008099
v 0.884393 0.416986 0.008099
v -0.110127 0.416986 -0.007903
v 0.884393 0.416986 -0.007903
v -0.110127 0.346434 -0.007903
v 0.884393 0.346434 -0.007903
vt 0.096819 0.998008
vt 0.096819 0.001992
vt 0.185142 0.998008
vt 0.185142 0.001992
vt 0.192308 0.998008
vt 0.192308 0.001992
vt 0.284832 0.998008
vt 0.284832 0.001992
vt 0.001147 0.998008
vt 0.001147 0.001992
vt 0.089470 0.998008
vt 0.089470 0.001992
vt 0.291470 0.998008
vt 0.291470 0.001992
vt 0.383994 0.998008
vt 0.383994 0.001992
vt 0.486120 0.094516
vt 0.486120 0.001992
vt 0.574443 0.094516
vt 0.574443 0.001992
vt 0.390631 0.094516
vt 0.390631 0.001992
vt 0.478954 0.094516
vt 0.478954 0.001992
vn 0.000000 0.000000 1.000000
vn 0.000000 0.000000 1.000000
vn 0.000000 0.000000 1.000000
vn 0.000000 0.000000 1.000000
vn 0.000000 1.000000 0.000000
vn 0.000000 1.000000 0.000000
vn 0.000000 1.000000 0.000000
vn 0.000000 1.000000 0.000000
vn 0.000000 0.000000 -1.000000
vn 0.000000 0.000000 -1.000000
vn 0.000000 0.000000 -1.000000
vn 0.000000 0.000000 -1.000000
vn 0.000000 -1.000000 0.000000
vn 0.000000 -1.000000 0.000000
vn 0.000000 -1.000000 0.000000
vn 0.000000 -1.000000 0.000000
vn 1.000000 0.000000 0.000000
vn 1.000000 0.000000 0.000000
vn 1.000000 0.000000 0.000000
vn 1.000000 0.000000 0.000000
vn -1.000000 0.000000 0.000000
vn -1.000000 0.000000 0.000000
vn -1.000000 0.000000 0.000000
vn -1.000000 0.000000 0.000000
s 1
f 9/25/25 10/26/26 11/27/27
f 11/27/27 10/26/26 12/28/28
s 2
f 11/29/29 12/30/30 13/31/31
f 13/31/31 12/30/30 14/32/32
s 3
f 13/33/33 14/34/34 15/35/35
f 15/35/35 14/34/34 16/36/36
s 4
f 15/37/37 16/38/38 9/39/39
f 9/39/39 16/38/38 10/40/40
s 5
f 10/41/41 16/42/42 12/43/43
f 12/43/43 16/42/42 14/44/44
s 6
f 15/45/45 9/46/46 13/47/47
f 13/47/47 9/46/46 11/48/48
